<svg width="100" height="100" viewBox="0 0 100 100" fill="none" xmlns="http://www.w3.org/2000/svg">
<rect width="100" height="100" fill="#F2FDFF"/>
<path fill-rule="evenodd" clip-rule="evenodd" d="M71.644 78.448C74.8914 78.448 77.524 75.8154 77.524 72.568V44.008C77.524 40.7606 74.8914 38.128 71.644 38.128H55.5868C55.2341 29.1611 47.8533 22 38.8 22C29.5216 22 22 29.5216 22 38.8C22 47.5401 28.6742 54.7214 37.204 55.5252V72.568C37.204 75.8154 39.8366 78.448 43.084 78.448H71.644ZM37.204 55.5252C37.7293 55.5747 38.2617 55.6 38.8 55.6C48.0784 55.6 55.6 48.0784 55.6 38.8C55.6 38.575 55.5955 38.3509 55.5868 38.128H43.084C39.8366 38.128 37.204 40.7606 37.204 44.008V55.5252Z" fill="#2F0A28"/>
</svg>
