<svg width="100" height="100" viewBox="0 0 100 100" fill="none" xmlns="http://www.w3.org/2000/svg">
<rect width="100" height="100" fill="#F2FDFF"/>
<mask id="path-1-outside-1_122_14" maskUnits="userSpaceOnUse" x="19.0408" y="27.5112" width="64" height="46" fill="black">
<rect fill="white" x="19.0408" y="27.5112" width="64" height="46"/>
<path d="M81.0911 48.8053C81.0501 46.8441 80.66 45.1146 79.9306 43.6656C78.907 41.6321 77.2342 40.32 74.9572 39.7637C72.9275 39.2681 70.6906 39.4431 68.9689 39.6503C62.0841 40.4794 55.0644 41.2332 48.2745 41.9625L46.4443 42.159C43.5191 42.4729 40.4951 42.7984 37.5973 43.7878C35.8932 44.3696 34.3739 45.1458 33.0804 46.0952C31.5738 47.2009 30.4172 48.5159 29.6419 50.0029C29.509 50.2571 29.3809 50.526 29.2606 50.7997C28.3309 52.9154 27.8782 55.3469 27.93 57.8341C26.2562 56.8691 25.1163 55.4789 24.3732 54.2519C23.2206 52.3484 22.5244 50.0469 22.3622 47.5988C22.1999 45.1576 22.5821 42.8023 23.4669 40.7893C23.5666 40.5615 23.6732 40.3396 23.7827 40.1294C25.346 37.1309 28.63 35.6419 30.4495 35.021C33.1058 34.1137 36.0017 33.8028 38.8027 33.5017L40.632 33.3052C47.4288 32.5759 54.4573 31.8211 61.3558 30.9901C64.2653 30.6391 67.1641 30.5902 68.9826 32.351C68.9259 32.5348 68.8956 32.7294 68.8956 32.9308C68.8956 34.015 69.7775 34.8969 70.8617 34.8969C71.9459 34.8969 72.8278 34.015 72.8278 32.9308C72.8278 31.8465 71.9459 30.9647 70.8617 30.9647C70.85 30.9647 70.8392 30.9647 70.8275 30.9647C69.7824 29.8413 68.4038 29.0983 66.7134 28.7522C64.7747 28.3552 62.6864 28.5254 61.083 28.7189C54.1982 29.548 47.1775 30.3018 40.3885 31.0311L38.5593 31.2276C35.6341 31.5415 32.6101 31.867 29.7123 32.8565C28.0082 33.4382 26.4889 34.2144 25.1955 35.1638C23.6889 36.2695 22.5323 37.5845 21.757 39.0715C21.624 39.3267 21.4959 39.5946 21.3757 39.8683C19.2668 44.6668 19.6872 50.9229 22.4198 55.4369C24.5492 58.9516 27.8626 61.0331 31.7508 61.297C32.1849 61.3264 32.6277 61.341 33.0736 61.341C34.5283 61.341 36.0183 61.1856 37.3773 60.8884C39.6093 60.3995 41.3887 59.5685 42.6675 58.4178C43.6804 57.5056 44.4068 56.4253 45.1088 55.3801C45.8254 54.3135 46.5029 53.3055 47.4298 52.5527C48.0936 52.014 48.6665 51.7481 49.1378 51.7637H49.171H49.2042C49.7068 51.751 50.3031 52.0473 50.9807 52.6446C51.362 52.9809 51.7159 53.328 52.0571 53.6643C53.3946 54.9793 54.777 56.3392 57.3776 56.4184C60.209 56.5045 63.0266 55.8318 65.5236 54.4738C68.2376 52.9985 70.3171 50.3969 71.5392 46.9516C72.1708 45.1713 72.6274 43.431 72.9041 41.7631C73.4222 41.7993 73.9336 41.8687 74.4195 41.987C76.061 42.3878 77.1648 43.2482 77.8922 44.6951C78.467 45.8371 78.776 47.2361 78.8092 48.8542C78.8728 51.9221 78.0085 55.0409 77.2723 57.1175C76.2272 60.0642 74.5612 62.176 72.3194 63.3951C70.1783 64.5595 67.7615 65.1354 65.3359 65.063C63.6308 65.0112 62.8027 64.1968 61.5493 62.965C61.1857 62.6071 60.8092 62.2376 60.382 61.8602C59.2694 60.8786 58.1558 60.3898 57.0687 60.4074C57.0413 60.4074 57.0129 60.4064 56.9856 60.4064C55.9737 60.4064 54.9559 60.8326 53.8785 61.7077C52.6857 62.6765 51.8801 63.8761 51.1009 65.0357C50.4478 66.0085 49.8309 66.9265 49.0283 67.649C46.9419 69.5271 42.8875 70.1558 39.7961 69.9465C36.8112 69.7442 34.7865 68.3001 33.4832 66.8385C33.5419 66.6518 33.5741 66.4533 33.5741 66.247C33.5741 65.1628 32.6923 64.2809 31.608 64.2809C30.5238 64.2809 29.6419 65.1628 29.6419 66.247C29.6419 67.3313 30.5238 68.2131 31.608 68.2131H31.6442C33.7237 70.6319 36.4641 72.0143 39.6416 72.2294C40.0757 72.2587 40.5186 72.2734 40.9644 72.2734C42.4192 72.2734 43.9082 72.118 45.2681 71.8207C47.5001 71.3319 49.2795 70.5009 50.5583 69.3502C51.5722 68.438 52.2976 67.3577 52.9996 66.3125C53.7162 65.2459 54.3937 64.2379 55.3206 63.4851C55.9844 62.9464 56.5573 62.6824 57.0286 62.6961H57.0618H57.0951C57.5966 62.6824 58.194 62.9796 58.8715 63.577C59.2528 63.9133 59.6057 64.2604 59.9479 64.5967C61.2854 65.9117 62.6678 67.2716 65.2684 67.3508C68.1007 67.4368 70.9174 66.7642 73.4144 65.4062C76.1275 63.9309 78.208 61.3293 79.4301 57.884C80.2308 55.6275 81.1693 52.2213 81.098 48.8082L81.0911 48.8053ZM64.4276 52.4628C62.2865 53.6272 59.8697 54.203 57.4441 54.1307C55.739 54.0789 54.9109 53.2645 53.6575 52.0326C53.2939 51.6748 52.9174 51.3052 52.4902 50.9278C51.3776 49.9462 50.264 49.4564 49.1769 49.475C48.1347 49.4496 47.0934 49.8768 45.9857 50.7753C44.793 51.7442 43.9874 52.9438 43.2081 54.1033C42.5551 55.0761 41.9382 55.9941 41.1355 56.7166C39.0491 58.5947 34.9957 59.2234 31.9033 59.0142C31.3226 58.9751 30.779 58.888 30.2676 58.7639C30.0623 56.2689 30.4378 53.8071 31.3548 51.7188C31.4545 51.491 31.5611 51.269 31.6706 51.0588C33.2339 48.0613 36.5179 46.5713 38.3364 45.9505C40.9927 45.0432 43.8886 44.7323 46.6897 44.4312L48.5189 44.2346C55.3157 43.5053 62.3432 42.7505 69.2427 41.9195C69.6592 41.8696 70.1079 41.8217 70.5743 41.7856C70.3152 43.1993 69.9153 44.6736 69.3796 46.1841C68.3344 49.1308 66.6685 51.2426 64.4266 52.4618L64.4276 52.4628Z"/>
</mask>
<path d="M81.0911 48.8053C81.0501 46.8441 80.66 45.1146 79.9306 43.6656C78.907 41.6321 77.2342 40.32 74.9572 39.7637C72.9275 39.2681 70.6906 39.4431 68.9689 39.6503C62.0841 40.4794 55.0644 41.2332 48.2745 41.9625L46.4443 42.159C43.5191 42.4729 40.4951 42.7984 37.5973 43.7878C35.8932 44.3696 34.3739 45.1458 33.0804 46.0952C31.5738 47.2009 30.4172 48.5159 29.6419 50.0029C29.509 50.2571 29.3809 50.526 29.2606 50.7997C28.3309 52.9154 27.8782 55.3469 27.93 57.8341C26.2562 56.8691 25.1163 55.4789 24.3732 54.2519C23.2206 52.3484 22.5244 50.0469 22.3622 47.5988C22.1999 45.1576 22.5821 42.8023 23.4669 40.7893C23.5666 40.5615 23.6732 40.3396 23.7827 40.1294C25.346 37.1309 28.63 35.6419 30.4495 35.021C33.1058 34.1137 36.0017 33.8028 38.8027 33.5017L40.632 33.3052C47.4288 32.5759 54.4573 31.8211 61.3558 30.9901C64.2653 30.6391 67.1641 30.5902 68.9826 32.351C68.9259 32.5348 68.8956 32.7294 68.8956 32.9308C68.8956 34.015 69.7775 34.8969 70.8617 34.8969C71.9459 34.8969 72.8278 34.015 72.8278 32.9308C72.8278 31.8465 71.9459 30.9647 70.8617 30.9647C70.85 30.9647 70.8392 30.9647 70.8275 30.9647C69.7824 29.8413 68.4038 29.0983 66.7134 28.7522C64.7747 28.3552 62.6864 28.5254 61.083 28.7189C54.1982 29.548 47.1775 30.3018 40.3885 31.0311L38.5593 31.2276C35.6341 31.5415 32.6101 31.867 29.7123 32.8565C28.0082 33.4382 26.4889 34.2144 25.1955 35.1638C23.6889 36.2695 22.5323 37.5845 21.757 39.0715C21.624 39.3267 21.4959 39.5946 21.3757 39.8683C19.2668 44.6668 19.6872 50.9229 22.4198 55.4369C24.5492 58.9516 27.8626 61.0331 31.7508 61.297C32.1849 61.3264 32.6277 61.341 33.0736 61.341C34.5283 61.341 36.0183 61.1856 37.3773 60.8884C39.6093 60.3995 41.3887 59.5685 42.6675 58.4178C43.6804 57.5056 44.4068 56.4253 45.1088 55.3801C45.8254 54.3135 46.5029 53.3055 47.4298 52.5527C48.0936 52.014 48.6665 51.7481 49.1378 51.7637H49.171H49.2042C49.7068 51.751 50.3031 52.0473 50.9807 52.6446C51.362 52.9809 51.7159 53.328 52.0571 53.6643C53.3946 54.9793 54.777 56.3392 57.3776 56.4184C60.209 56.5045 63.0266 55.8318 65.5236 54.4738C68.2376 52.9985 70.3171 50.3969 71.5392 46.9516C72.1708 45.1713 72.6274 43.431 72.9041 41.7631C73.4222 41.7993 73.9336 41.8687 74.4195 41.987C76.061 42.3878 77.1648 43.2482 77.8922 44.6951C78.467 45.8371 78.776 47.2361 78.8092 48.8542C78.8728 51.9221 78.0085 55.0409 77.2723 57.1175C76.2272 60.0642 74.5612 62.176 72.3194 63.3951C70.1783 64.5595 67.7615 65.1354 65.3359 65.063C63.6308 65.0112 62.8027 64.1968 61.5493 62.965C61.1857 62.6071 60.8092 62.2376 60.382 61.8602C59.2694 60.8786 58.1558 60.3898 57.0687 60.4074C57.0413 60.4074 57.0129 60.4064 56.9856 60.4064C55.9737 60.4064 54.9559 60.8326 53.8785 61.7077C52.6857 62.6765 51.8801 63.8761 51.1009 65.0357C50.4478 66.0085 49.8309 66.9265 49.0283 67.649C46.9419 69.5271 42.8875 70.1558 39.7961 69.9465C36.8112 69.7442 34.7865 68.3001 33.4832 66.8385C33.5419 66.6518 33.5741 66.4533 33.5741 66.247C33.5741 65.1628 32.6923 64.2809 31.608 64.2809C30.5238 64.2809 29.6419 65.1628 29.6419 66.247C29.6419 67.3313 30.5238 68.2131 31.608 68.2131H31.6442C33.7237 70.6319 36.4641 72.0143 39.6416 72.2294C40.0757 72.2587 40.5186 72.2734 40.9644 72.2734C42.4192 72.2734 43.9082 72.118 45.2681 71.8207C47.5001 71.3319 49.2795 70.5009 50.5583 69.3502C51.5722 68.438 52.2976 67.3577 52.9996 66.3125C53.7162 65.2459 54.3937 64.2379 55.3206 63.4851C55.9844 62.9464 56.5573 62.6824 57.0286 62.6961H57.0618H57.0951C57.5966 62.6824 58.194 62.9796 58.8715 63.577C59.2528 63.9133 59.6057 64.2604 59.9479 64.5967C61.2854 65.9117 62.6678 67.2716 65.2684 67.3508C68.1007 67.4368 70.9174 66.7642 73.4144 65.4062C76.1275 63.9309 78.208 61.3293 79.4301 57.884C80.2308 55.6275 81.1693 52.2213 81.098 48.8082L81.0911 48.8053ZM64.4276 52.4628C62.2865 53.6272 59.8697 54.203 57.4441 54.1307C55.739 54.0789 54.9109 53.2645 53.6575 52.0326C53.2939 51.6748 52.9174 51.3052 52.4902 50.9278C51.3776 49.9462 50.264 49.4564 49.1769 49.475C48.1347 49.4496 47.0934 49.8768 45.9857 50.7753C44.793 51.7442 43.9874 52.9438 43.2081 54.1033C42.5551 55.0761 41.9382 55.9941 41.1355 56.7166C39.0491 58.5947 34.9957 59.2234 31.9033 59.0142C31.3226 58.9751 30.779 58.888 30.2676 58.7639C30.0623 56.2689 30.4378 53.8071 31.3548 51.7188C31.4545 51.491 31.5611 51.269 31.6706 51.0588C33.2339 48.0613 36.5179 46.5713 38.3364 45.9505C40.9927 45.0432 43.8886 44.7323 46.6897 44.4312L48.5189 44.2346C55.3157 43.5053 62.3432 42.7505 69.2427 41.9195C69.6592 41.8696 70.1079 41.8217 70.5743 41.7856C70.3152 43.1993 69.9153 44.6736 69.3796 46.1841C68.3344 49.1308 66.6685 51.2426 64.4266 52.4618L64.4276 52.4628Z" fill="#2F0A28"/>
<path d="M81.0911 48.8053C81.0501 46.8441 80.66 45.1146 79.9306 43.6656C78.907 41.6321 77.2342 40.32 74.9572 39.7637C72.9275 39.2681 70.6906 39.4431 68.9689 39.6503C62.0841 40.4794 55.0644 41.2332 48.2745 41.9625L46.4443 42.159C43.5191 42.4729 40.4951 42.7984 37.5973 43.7878C35.8932 44.3696 34.3739 45.1458 33.0804 46.0952C31.5738 47.2009 30.4172 48.5159 29.6419 50.0029C29.509 50.2571 29.3809 50.526 29.2606 50.7997C28.3309 52.9154 27.8782 55.3469 27.93 57.8341C26.2562 56.8691 25.1163 55.4789 24.3732 54.2519C23.2206 52.3484 22.5244 50.0469 22.3622 47.5988C22.1999 45.1576 22.5821 42.8023 23.4669 40.7893C23.5666 40.5615 23.6732 40.3396 23.7827 40.1294C25.346 37.1309 28.63 35.6419 30.4495 35.021C33.1058 34.1137 36.0017 33.8028 38.8027 33.5017L40.632 33.3052C47.4288 32.5759 54.4573 31.8211 61.3558 30.9901C64.2653 30.6391 67.1641 30.5902 68.9826 32.351C68.9259 32.5348 68.8956 32.7294 68.8956 32.9308C68.8956 34.015 69.7775 34.8969 70.8617 34.8969C71.9459 34.8969 72.8278 34.015 72.8278 32.9308C72.8278 31.8465 71.9459 30.9647 70.8617 30.9647C70.85 30.9647 70.8392 30.9647 70.8275 30.9647C69.7824 29.8413 68.4038 29.0983 66.7134 28.7522C64.7747 28.3552 62.6864 28.5254 61.083 28.7189C54.1982 29.548 47.1775 30.3018 40.3885 31.0311L38.5593 31.2276C35.6341 31.5415 32.6101 31.867 29.7123 32.8565C28.0082 33.4382 26.4889 34.2144 25.1955 35.1638C23.6889 36.2695 22.5323 37.5845 21.757 39.0715C21.624 39.3267 21.4959 39.5946 21.3757 39.8683C19.2668 44.6668 19.6872 50.9229 22.4198 55.4369C24.5492 58.9516 27.8626 61.0331 31.7508 61.297C32.1849 61.3264 32.6277 61.341 33.0736 61.341C34.5283 61.341 36.0183 61.1856 37.3773 60.8884C39.6093 60.3995 41.3887 59.5685 42.6675 58.4178C43.6804 57.5056 44.4068 56.4253 45.1088 55.3801C45.8254 54.3135 46.5029 53.3055 47.4298 52.5527C48.0936 52.014 48.6665 51.7481 49.1378 51.7637H49.171H49.2042C49.7068 51.751 50.3031 52.0473 50.9807 52.6446C51.362 52.9809 51.7159 53.328 52.0571 53.6643C53.3946 54.9793 54.777 56.3392 57.3776 56.4184C60.209 56.5045 63.0266 55.8318 65.5236 54.4738C68.2376 52.9985 70.3171 50.3969 71.5392 46.9516C72.1708 45.1713 72.6274 43.431 72.9041 41.7631C73.4222 41.7993 73.9336 41.8687 74.4195 41.987C76.061 42.3878 77.1648 43.2482 77.8922 44.6951C78.467 45.8371 78.776 47.2361 78.8092 48.8542C78.8728 51.9221 78.0085 55.0409 77.2723 57.1175C76.2272 60.0642 74.5612 62.176 72.3194 63.3951C70.1783 64.5595 67.7615 65.1354 65.3359 65.063C63.6308 65.0112 62.8027 64.1968 61.5493 62.965C61.1857 62.6071 60.8092 62.2376 60.382 61.8602C59.2694 60.8786 58.1558 60.3898 57.0687 60.4074C57.0413 60.4074 57.0129 60.4064 56.9856 60.4064C55.9737 60.4064 54.9559 60.8326 53.8785 61.7077C52.6857 62.6765 51.8801 63.8761 51.1009 65.0357C50.4478 66.0085 49.8309 66.9265 49.0283 67.649C46.9419 69.5271 42.8875 70.1558 39.7961 69.9465C36.8112 69.7442 34.7865 68.3001 33.4832 66.8385C33.5419 66.6518 33.5741 66.4533 33.5741 66.247C33.5741 65.1628 32.6923 64.2809 31.608 64.2809C30.5238 64.2809 29.6419 65.1628 29.6419 66.247C29.6419 67.3313 30.5238 68.2131 31.608 68.2131H31.6442C33.7237 70.6319 36.4641 72.0143 39.6416 72.2294C40.0757 72.2587 40.5186 72.2734 40.9644 72.2734C42.4192 72.2734 43.9082 72.118 45.2681 71.8207C47.5001 71.3319 49.2795 70.5009 50.5583 69.3502C51.5722 68.438 52.2976 67.3577 52.9996 66.3125C53.7162 65.2459 54.3937 64.2379 55.3206 63.4851C55.9844 62.9464 56.5573 62.6824 57.0286 62.6961H57.0618H57.0951C57.5966 62.6824 58.194 62.9796 58.8715 63.577C59.2528 63.9133 59.6057 64.2604 59.9479 64.5967C61.2854 65.9117 62.6678 67.2716 65.2684 67.3508C68.1007 67.4368 70.9174 66.7642 73.4144 65.4062C76.1275 63.9309 78.208 61.3293 79.4301 57.884C80.2308 55.6275 81.1693 52.2213 81.098 48.8082L81.0911 48.8053ZM64.4276 52.4628C62.2865 53.6272 59.8697 54.203 57.4441 54.1307C55.739 54.0789 54.9109 53.2645 53.6575 52.0326C53.2939 51.6748 52.9174 51.3052 52.4902 50.9278C51.3776 49.9462 50.264 49.4564 49.1769 49.475C48.1347 49.4496 47.0934 49.8768 45.9857 50.7753C44.793 51.7442 43.9874 52.9438 43.2081 54.1033C42.5551 55.0761 41.9382 55.9941 41.1355 56.7166C39.0491 58.5947 34.9957 59.2234 31.9033 59.0142C31.3226 58.9751 30.779 58.888 30.2676 58.7639C30.0623 56.2689 30.4378 53.8071 31.3548 51.7188C31.4545 51.491 31.5611 51.269 31.6706 51.0588C33.2339 48.0613 36.5179 46.5713 38.3364 45.9505C40.9927 45.0432 43.8886 44.7323 46.6897 44.4312L48.5189 44.2346C55.3157 43.5053 62.3432 42.7505 69.2427 41.9195C69.6592 41.8696 70.1079 41.8217 70.5743 41.7856C70.3152 43.1993 69.9153 44.6736 69.3796 46.1841C68.3344 49.1308 66.6685 51.2426 64.4266 52.4618L64.4276 52.4628Z" stroke="#2F0A28" stroke-width="2" mask="url(#path-1-outside-1_122_14)"/>
</svg>
